<mxfile host="65bd71144e">
    <diagram id="yax_Asdibd-5SHM2MoYg" name="Page-1">
        <mxGraphModel dx="498" dy="398" grid="1" gridSize="10" guides="1" tooltips="1" connect="1" arrows="1" fold="1" page="1" pageScale="1" pageWidth="827" pageHeight="1169" math="0" shadow="0">
            <root>
                <mxCell id="0"/>
                <mxCell id="1" parent="0"/>
                <mxCell id="2" value="&lt;&lt;AbstractClass&gt;&gt;&#10;Factory" style="swimlane;fontStyle=0;childLayout=stackLayout;horizontal=1;startSize=40;fillColor=none;horizontalStack=0;resizeParent=1;resizeParentMax=0;resizeLast=0;collapsible=1;marginBottom=0;fontFamily=Courier New;" vertex="1" parent="1">
                    <mxGeometry x="304" y="90" width="220" height="92" as="geometry"/>
                </mxCell>
                <mxCell id="4" value="+ getProductA() : ProductA" style="text;strokeColor=none;fillColor=none;align=left;verticalAlign=top;spacingLeft=4;spacingRight=4;overflow=hidden;rotatable=0;points=[[0,0.5],[1,0.5]];portConstraint=eastwest;fontFamily=Courier New;" vertex="1" parent="2">
                    <mxGeometry y="40" width="220" height="26" as="geometry"/>
                </mxCell>
                <mxCell id="5" value="+ getProductB() : ProductB" style="text;strokeColor=none;fillColor=none;align=left;verticalAlign=top;spacingLeft=4;spacingRight=4;overflow=hidden;rotatable=0;points=[[0,0.5],[1,0.5]];portConstraint=eastwest;fontFamily=Courier New;" vertex="1" parent="2">
                    <mxGeometry y="66" width="220" height="26" as="geometry"/>
                </mxCell>
                <mxCell id="22" style="edgeStyle=none;html=1;exitX=0.5;exitY=0;exitDx=0;exitDy=0;entryX=0.222;entryY=0.997;entryDx=0;entryDy=0;entryPerimeter=0;fontFamily=Courier New;endArrow=block;endFill=0;" edge="1" parent="1" source="6" target="5">
                    <mxGeometry relative="1" as="geometry">
                        <Array as="points">
                            <mxPoint x="174" y="260"/>
                            <mxPoint x="354" y="220"/>
                        </Array>
                    </mxGeometry>
                </mxCell>
                <mxCell id="74" style="edgeStyle=none;html=1;exitX=0.25;exitY=1;exitDx=0;exitDy=0;fontFamily=Courier New;endArrow=open;endFill=0;entryX=0.5;entryY=0;entryDx=0;entryDy=0;strokeColor=#9673a6;fillColor=#e1d5e7;" edge="1" parent="1" source="6" target="29">
                    <mxGeometry relative="1" as="geometry">
                        <mxPoint x="119" y="400" as="targetPoint"/>
                        <Array as="points">
                            <mxPoint x="119" y="400"/>
                            <mxPoint x="75" y="520"/>
                        </Array>
                    </mxGeometry>
                </mxCell>
                <mxCell id="75" style="edgeStyle=none;html=1;exitX=0.75;exitY=1;exitDx=0;exitDy=0;fontFamily=Courier New;endArrow=open;endFill=0;entryX=0.466;entryY=0.017;entryDx=0;entryDy=0;entryPerimeter=0;fillColor=#dae8fc;strokeColor=#6c8ebf;" edge="1" parent="1" source="6" target="61">
                    <mxGeometry relative="1" as="geometry">
                        <mxPoint x="260" y="430" as="targetPoint"/>
                        <Array as="points">
                            <mxPoint x="229" y="390"/>
                            <mxPoint x="480" y="520"/>
                        </Array>
                    </mxGeometry>
                </mxCell>
                <mxCell id="6" value="ConcreteFactoryA" style="swimlane;fontStyle=0;childLayout=stackLayout;horizontal=1;startSize=26;fillColor=none;horizontalStack=0;resizeParent=1;resizeParentMax=0;resizeLast=0;collapsible=1;marginBottom=0;fontFamily=Courier New;" vertex="1" parent="1">
                    <mxGeometry x="64" y="285" width="220" height="78" as="geometry"/>
                </mxCell>
                <mxCell id="8" value="+ getProductA() : ProductA" style="text;strokeColor=none;fillColor=none;align=left;verticalAlign=top;spacingLeft=4;spacingRight=4;overflow=hidden;rotatable=0;points=[[0,0.5],[1,0.5]];portConstraint=eastwest;fontFamily=Courier New;" vertex="1" parent="6">
                    <mxGeometry y="26" width="220" height="26" as="geometry"/>
                </mxCell>
                <mxCell id="9" value="+ getProductB() : ProductB" style="text;strokeColor=none;fillColor=none;align=left;verticalAlign=top;spacingLeft=4;spacingRight=4;overflow=hidden;rotatable=0;points=[[0,0.5],[1,0.5]];portConstraint=eastwest;fontFamily=Courier New;" vertex="1" parent="6">
                    <mxGeometry y="52" width="220" height="26" as="geometry"/>
                </mxCell>
                <mxCell id="21" style="edgeStyle=none;html=1;exitX=0.5;exitY=0;exitDx=0;exitDy=0;entryX=0.499;entryY=1.077;entryDx=0;entryDy=0;entryPerimeter=0;fontFamily=Courier New;endArrow=block;endFill=0;" edge="1" parent="1" source="10" target="5">
                    <mxGeometry relative="1" as="geometry"/>
                </mxCell>
                <mxCell id="76" style="edgeStyle=none;html=1;exitX=0.25;exitY=1;exitDx=0;exitDy=0;fontFamily=Courier New;endArrow=open;endFill=0;entryX=0.5;entryY=0;entryDx=0;entryDy=0;fillColor=#e1d5e7;strokeColor=#9673a6;" edge="1" parent="1" source="10" target="32">
                    <mxGeometry relative="1" as="geometry">
                        <mxPoint x="330" y="400.00000000000006" as="targetPoint"/>
                        <Array as="points">
                            <mxPoint x="359" y="390"/>
                            <mxPoint x="210" y="520"/>
                        </Array>
                    </mxGeometry>
                </mxCell>
                <mxCell id="77" style="edgeStyle=none;html=1;exitX=0.75;exitY=1;exitDx=0;exitDy=0;fontFamily=Courier New;endArrow=open;endFill=0;entryX=0.5;entryY=0;entryDx=0;entryDy=0;fillColor=#dae8fc;strokeColor=#6c8ebf;" edge="1" parent="1" source="10" target="63">
                    <mxGeometry relative="1" as="geometry">
                        <mxPoint x="480" y="430" as="targetPoint"/>
                        <Array as="points">
                            <mxPoint x="469" y="390"/>
                            <mxPoint x="620" y="520"/>
                        </Array>
                    </mxGeometry>
                </mxCell>
                <mxCell id="10" value="ConcreteFactoryB" style="swimlane;fontStyle=0;childLayout=stackLayout;horizontal=1;startSize=26;fillColor=none;horizontalStack=0;resizeParent=1;resizeParentMax=0;resizeLast=0;collapsible=1;marginBottom=0;fontFamily=Courier New;" vertex="1" parent="1">
                    <mxGeometry x="304" y="285" width="220" height="78" as="geometry"/>
                </mxCell>
                <mxCell id="12" value="+ getProductA() : ProductA" style="text;strokeColor=none;fillColor=none;align=left;verticalAlign=top;spacingLeft=4;spacingRight=4;overflow=hidden;rotatable=0;points=[[0,0.5],[1,0.5]];portConstraint=eastwest;fontFamily=Courier New;" vertex="1" parent="10">
                    <mxGeometry y="26" width="220" height="26" as="geometry"/>
                </mxCell>
                <mxCell id="13" value="+ getProductB() : ProductB" style="text;strokeColor=none;fillColor=none;align=left;verticalAlign=top;spacingLeft=4;spacingRight=4;overflow=hidden;rotatable=0;points=[[0,0.5],[1,0.5]];portConstraint=eastwest;fontFamily=Courier New;" vertex="1" parent="10">
                    <mxGeometry y="52" width="220" height="26" as="geometry"/>
                </mxCell>
                <mxCell id="24" style="edgeStyle=none;html=1;exitX=0.5;exitY=0;exitDx=0;exitDy=0;entryX=0.757;entryY=1.103;entryDx=0;entryDy=0;entryPerimeter=0;fontFamily=Courier New;endArrow=block;endFill=0;" edge="1" parent="1" source="14" target="5">
                    <mxGeometry relative="1" as="geometry">
                        <Array as="points">
                            <mxPoint x="654" y="260"/>
                            <mxPoint x="471" y="220"/>
                        </Array>
                    </mxGeometry>
                </mxCell>
                <mxCell id="78" style="edgeStyle=none;html=1;exitX=0.25;exitY=1;exitDx=0;exitDy=0;fontFamily=Courier New;endArrow=open;endFill=0;entryX=0.5;entryY=0;entryDx=0;entryDy=0;fillColor=#e1d5e7;strokeColor=#9673a6;" edge="1" parent="1" source="14" target="33">
                    <mxGeometry relative="1" as="geometry">
                        <mxPoint x="402.77418567288305" y="430" as="targetPoint"/>
                        <Array as="points">
                            <mxPoint x="599" y="390"/>
                            <mxPoint x="342" y="520"/>
                        </Array>
                    </mxGeometry>
                </mxCell>
                <mxCell id="79" style="edgeStyle=none;html=1;exitX=0.75;exitY=1;exitDx=0;exitDy=0;fontFamily=Courier New;endArrow=open;endFill=0;entryX=0.5;entryY=0;entryDx=0;entryDy=0;fillColor=#dae8fc;strokeColor=#6c8ebf;" edge="1" parent="1" source="14" target="65">
                    <mxGeometry relative="1" as="geometry">
                        <mxPoint x="709" y="400" as="targetPoint"/>
                        <Array as="points">
                            <mxPoint x="709" y="400"/>
                            <mxPoint x="752" y="530"/>
                        </Array>
                    </mxGeometry>
                </mxCell>
                <mxCell id="14" value="ConcreteFactoryC" style="swimlane;fontStyle=0;childLayout=stackLayout;horizontal=1;startSize=26;fillColor=none;horizontalStack=0;resizeParent=1;resizeParentMax=0;resizeLast=0;collapsible=1;marginBottom=0;fontFamily=Courier New;" vertex="1" parent="1">
                    <mxGeometry x="544" y="285" width="220" height="78" as="geometry"/>
                </mxCell>
                <mxCell id="16" value="+ getProductA() : ProductA" style="text;strokeColor=none;fillColor=none;align=left;verticalAlign=top;spacingLeft=4;spacingRight=4;overflow=hidden;rotatable=0;points=[[0,0.5],[1,0.5]];portConstraint=eastwest;fontFamily=Courier New;" vertex="1" parent="14">
                    <mxGeometry y="26" width="220" height="26" as="geometry"/>
                </mxCell>
                <mxCell id="17" value="+ getProductB() : ProductB" style="text;strokeColor=none;fillColor=none;align=left;verticalAlign=top;spacingLeft=4;spacingRight=4;overflow=hidden;rotatable=0;points=[[0,0.5],[1,0.5]];portConstraint=eastwest;fontFamily=Courier New;" vertex="1" parent="14">
                    <mxGeometry y="52" width="220" height="26" as="geometry"/>
                </mxCell>
                <mxCell id="25" value="&lt;&lt;AbstractClass&gt;&gt;&#10;ProductA" style="swimlane;fontStyle=0;childLayout=stackLayout;horizontal=1;startSize=40;fillColor=#e1d5e7;horizontalStack=0;resizeParent=1;resizeParentMax=0;resizeLast=0;collapsible=1;marginBottom=0;fontFamily=Courier New;strokeColor=#9673a6;" vertex="1" parent="1">
                    <mxGeometry x="144" y="670" width="132" height="92" as="geometry"/>
                </mxCell>
                <mxCell id="35" style="edgeStyle=none;html=1;exitX=0.5;exitY=1;exitDx=0;exitDy=0;entryX=0.25;entryY=0;entryDx=0;entryDy=0;fontFamily=Courier New;endArrow=block;endFill=0;" edge="1" parent="1" source="29" target="25">
                    <mxGeometry relative="1" as="geometry">
                        <Array as="points">
                            <mxPoint x="75" y="640"/>
                            <mxPoint x="177" y="650"/>
                        </Array>
                    </mxGeometry>
                </mxCell>
                <mxCell id="29" value="ConcreteProductA1" style="swimlane;fontStyle=0;childLayout=stackLayout;horizontal=1;startSize=26;fillColor=#e1d5e7;horizontalStack=0;resizeParent=1;resizeParentMax=0;resizeLast=0;collapsible=1;marginBottom=0;fontFamily=Courier New;strokeColor=#9673a6;" vertex="1" parent="1">
                    <mxGeometry x="10" y="545" width="129" height="78" as="geometry"/>
                </mxCell>
                <mxCell id="36" style="edgeStyle=none;html=1;exitX=0.5;exitY=1;exitDx=0;exitDy=0;entryX=0.5;entryY=0;entryDx=0;entryDy=0;fontFamily=Courier New;endArrow=block;endFill=0;" edge="1" parent="1" source="32" target="25">
                    <mxGeometry relative="1" as="geometry"/>
                </mxCell>
                <mxCell id="32" value="ConcreteProductA2" style="swimlane;fontStyle=0;childLayout=stackLayout;horizontal=1;startSize=26;fillColor=#e1d5e7;horizontalStack=0;resizeParent=1;resizeParentMax=0;resizeLast=0;collapsible=1;marginBottom=0;fontFamily=Courier New;strokeColor=#9673a6;" vertex="1" parent="1">
                    <mxGeometry x="147" y="545" width="126" height="78" as="geometry"/>
                </mxCell>
                <mxCell id="37" style="edgeStyle=none;html=1;exitX=0.5;exitY=1;exitDx=0;exitDy=0;entryX=0.75;entryY=0;entryDx=0;entryDy=0;fontFamily=Courier New;endArrow=block;endFill=0;" edge="1" parent="1" source="33" target="25">
                    <mxGeometry relative="1" as="geometry">
                        <Array as="points">
                            <mxPoint x="342" y="640"/>
                            <mxPoint x="243" y="650"/>
                        </Array>
                    </mxGeometry>
                </mxCell>
                <mxCell id="33" value="ConcreteProductA3" style="swimlane;fontStyle=0;childLayout=stackLayout;horizontal=1;startSize=26;fillColor=#e1d5e7;horizontalStack=0;resizeParent=1;resizeParentMax=0;resizeLast=0;collapsible=1;marginBottom=0;fontFamily=Courier New;strokeColor=#9673a6;" vertex="1" parent="1">
                    <mxGeometry x="279" y="545" width="126" height="78" as="geometry"/>
                </mxCell>
                <mxCell id="59" value="&lt;&lt;AbstractClass&gt;&gt;&#10;ProductB" style="swimlane;fontStyle=0;childLayout=stackLayout;horizontal=1;startSize=40;fillColor=#dae8fc;horizontalStack=0;resizeParent=1;resizeParentMax=0;resizeLast=0;collapsible=1;marginBottom=0;fontFamily=Courier New;strokeColor=#6c8ebf;" vertex="1" parent="1">
                    <mxGeometry x="554" y="670" width="132" height="92" as="geometry"/>
                </mxCell>
                <mxCell id="60" style="edgeStyle=none;html=1;exitX=0.5;exitY=1;exitDx=0;exitDy=0;entryX=0.25;entryY=0;entryDx=0;entryDy=0;fontFamily=Courier New;endArrow=block;endFill=0;" edge="1" source="61" target="59" parent="1">
                    <mxGeometry relative="1" as="geometry">
                        <Array as="points">
                            <mxPoint x="485" y="640"/>
                            <mxPoint x="587" y="650"/>
                        </Array>
                    </mxGeometry>
                </mxCell>
                <mxCell id="61" value="ConcreteProductB1" style="swimlane;fontStyle=0;childLayout=stackLayout;horizontal=1;startSize=26;fillColor=#dae8fc;horizontalStack=0;resizeParent=1;resizeParentMax=0;resizeLast=0;collapsible=1;marginBottom=0;fontFamily=Courier New;strokeColor=#6c8ebf;" vertex="1" parent="1">
                    <mxGeometry x="420" y="545" width="129" height="78" as="geometry"/>
                </mxCell>
                <mxCell id="62" style="edgeStyle=none;html=1;exitX=0.5;exitY=1;exitDx=0;exitDy=0;entryX=0.5;entryY=0;entryDx=0;entryDy=0;fontFamily=Courier New;endArrow=block;endFill=0;" edge="1" source="63" target="59" parent="1">
                    <mxGeometry relative="1" as="geometry"/>
                </mxCell>
                <mxCell id="63" value="ConcreteProductB2" style="swimlane;fontStyle=0;childLayout=stackLayout;horizontal=1;startSize=26;fillColor=#dae8fc;horizontalStack=0;resizeParent=1;resizeParentMax=0;resizeLast=0;collapsible=1;marginBottom=0;fontFamily=Courier New;strokeColor=#6c8ebf;" vertex="1" parent="1">
                    <mxGeometry x="557" y="545" width="126" height="78" as="geometry"/>
                </mxCell>
                <mxCell id="64" style="edgeStyle=none;html=1;exitX=0.5;exitY=1;exitDx=0;exitDy=0;entryX=0.75;entryY=0;entryDx=0;entryDy=0;fontFamily=Courier New;endArrow=block;endFill=0;" edge="1" source="65" target="59" parent="1">
                    <mxGeometry relative="1" as="geometry">
                        <Array as="points">
                            <mxPoint x="752" y="640"/>
                            <mxPoint x="653" y="650"/>
                        </Array>
                    </mxGeometry>
                </mxCell>
                <mxCell id="65" value="ConcreteProductB3" style="swimlane;fontStyle=0;childLayout=stackLayout;horizontal=1;startSize=26;fillColor=#dae8fc;horizontalStack=0;resizeParent=1;resizeParentMax=0;resizeLast=0;collapsible=1;marginBottom=0;fontFamily=Courier New;strokeColor=#6c8ebf;" vertex="1" parent="1">
                    <mxGeometry x="689" y="545" width="126" height="78" as="geometry"/>
                </mxCell>
            </root>
        </mxGraphModel>
    </diagram>
</mxfile>